<svg xmlns="http://www.w3.org/2000/svg" width="360" height="240" version="1.0" viewBox="0 0 270 180"><path d="M26.4 67.1c-1.6.5-4.1 2-5.5 3.5-3.5 3.8-3.3 12.7.4 20.9 3.7 7.9 5.3 9.5 9.5 9.5 4.1 0 17.6-6.8 22-11.1 4-3.9 4.6-5.9 3.2-10.7-2.3-8.8-9.1-13.2-20-13.1-3.6 0-7.9.5-9.6 1zm19.1 4.6c4.6 2.2 8 8.8 6.5 12.7-2 5.3-19.1 14.2-22.8 12-2.6-1.5-6.5-10.3-7-15.7-.5-5.1 1.1-8 5.3-9.8 3.6-1.4 14.2-1 18 .8zM163 71.2c-3.6 2.8-7.8 5.9-9.5 6.9-1.9 1.2-3.3 3.2-4.1 6l-1.2 4.1 3.4-.4c1.9-.2 3.4-.1 3.4.2 0 .3-.9 3.7-2 7.6-3.1 11.3-3.2 12.9-1.1 15.5 1.8 2.3 2.5 2.4 12.3 2.2 15.3-.4 16.4-.8 19.3-7.2l2.5-5.3-2.2.6c-5.2 1.6-9.4 1.7-11 .4-1.6-1.2-1.6-1.7 0-7.6l1.7-6.2h16.2l1.6-5.8c.9-3.1 1.9-6.5 2.2-7.5.6-1.5-.1-1.7-7.9-1.7H178l1.4-3.5 1.5-3.5h-5.7c-5.3 0-6.1.4-12.2 5.2zm13.3 2.3c2.4 3.1 3.3 3.5 7.3 3.5 4.9 0 6.3 1.5 4.4 4.9-.9 1.8-2 2.1-6.9 2.1-7.4 0-10.4 2.4-12 9.9-.6 2.9-1.1 5.8-1.1 6.6 0 1.7 5.7 6.5 7.8 6.5 1.5.1 1.5.2.1 1-2.8 1.6-16.3 2.4-18.9 1-2.5-1.3-2.5-3.6.1-15.2 1.2-5.1 1.1-5.9-.4-7.6-.9-1-1.7-2.4-1.7-3 0-1.4 15-13.1 17-13.1.8-.1 2.8 1.5 4.3 3.4zM100.3 72.6c-4.2 1.5-6.1 3-7.9 6.7-2.2 4.2-2.9 2.5-1-2.3l1.6-4H74.1l-1 3.7c-4.2 15.8-9 33.1-9.5 34.3-.5 1.3.7 1.5 9.1 1.4l9.8-.2 2.3-9.4c1.3-5.1 3.1-10.1 3.9-11.1 2-2.1 7.1-2.3 8-.1.3.8-.6 5.5-2.1 10.3-1.4 4.8-2.6 9.2-2.6 9.7s4.1.9 9.2.8l9.2-.1 2.6-10.2c1.5-5.6 3.1-10.5 3.6-11 1.8-1.7 5.1-2.1 6.9-.7 1.8 1.3 1.8 1.6-1 10.9-1.5 5.3-2.6 9.9-2.4 10.3.2.4 4.4.7 9.4.7l8.9-.1 3.8-14.3c5.1-19.3 5-21.7-.6-24.6-4.2-2.2-11.8-2-15.8.4-1.8 1-4.3 3.4-5.5 5.3l-2.3 3.3v-3.2c0-3.4-2.9-7.1-5.7-7.2-1 0-3.4-.1-5.2-.2-1.9-.1-5 .3-6.8.9zm12.2 4.2c.6.4 1.8 1.9 2.8 3.4 2.3 3.6 3.7 3.5 9.3-.7 4.2-3.3 5.2-3.6 10.2-3.3 7.2.4 8 1.7 6.4 9.7-.7 3.2-2.2 9.4-3.5 13.8l-2.2 7.8-5.2.3c-2.9.2-5.3-.1-5.3-.5s.7-3.3 1.5-6.3c2-7.5 1.9-10-.7-12.7-2.9-3.1-7-3-10.8.5-2.4 2-3.7 4.7-5.3 10.7l-2.3 8-3.8.3c-6.4.6-6.7.2-4.7-7.5 2-7.6 1.5-10.2-2.1-12.7-6.1-4.3-11.6 0-14.9 11.5-1.5 5.2-3 8.4-4.2 9.1-1.9 1-8.7.3-8.7-.9 0-1.9 7.4-28 8.2-29.1.6-.6 3-1.2 5.5-1.2 4 0 4.5.3 5.4 3 1.4 3.9 2.9 3.8 8.5-.5 3.9-3 5.3-3.5 9.7-3.5 2.9 0 5.7.4 6.2.8zM251.2 72.2c-3 3-.3 9.8 3.8 9.8s6.8-6.8 3.8-9.8c-1.5-1.5-6.1-1.5-7.6 0zm6.6 1c1.4 1.4 1.6 4.8.2 4.8-.5 0-.9-1-.7-2.2.1-1.7-.4-2.4-2-2.6-2-.3-2.3.1-2.2 3 0 1.8.3 2.7.6 2 .6-1.6 2-1.5 2.7.3.4 1.1-.1 1.5-1.9 1.5-1.8 0-2.6-.7-3.1-2.5-1.1-4.3 3.4-7.3 6.4-4.3zM224 73.8c-1.9 1.1-4.4 3.3-5.5 5-2.8 4.4-3.7 4-2-.9.8-2.3 1.5-4.3 1.5-4.5 0-.2-4.3-.4-9.5-.4h-9.4l-1.2 4.2c-.6 2.4-3 11.4-5.3 20l-4.3 15.8h19.6l1.1-4.3c3.1-11.5 4.4-15.3 5.8-17 1.8-2.1 7-2.3 7.8-.3.3.8-.6 5.7-2 10.9s-2.6 9.6-2.6 9.8c0 .2 4.4.4 9.8.4h9.9l3.6-13.6c3.8-13.9 4.5-19.6 2.7-22.9-2.2-4.1-14-5.4-20-2.2zm15.2 3.9c1 .9 1.8 2.9 1.8 4.5 0 3.5-4.9 22.8-6.3 24.5-.5.8-3.1 1.3-5.9 1.3h-5l.6-3.8c2.1-12.5 2-13.7-1-16.1-2.1-1.7-3.7-2.1-5.8-1.7-5.5 1.1-8.3 5.1-10.6 14.9-.8 3.5-2.1 6.2-3.1 6.8-2.3 1.2-8.6 1.2-9.4-.1-.7-1.2 6.2-27.9 7.7-29.8.6-.6 3-1.2 5.4-1.2 3.8 0 4.5.4 5.9 3 1.8 3.5 3.3 3.7 6.8 1 6.6-5.2 15.2-6.7 18.9-3.3zM12.1 79.4c-1.5 1.8-2.6 11.3-1.7 15.8.3 1.8 1.5 4.8 2.6 6.6l2.1 3.3 3-3.2 3-3.2-2.7-6.1c-1.5-3.3-2.9-7.9-3.2-10.3-.5-4.5-1.2-5.2-3.1-2.9z"/><path d="M52.7 94.5c-5.4 4.1-15.7 9.2-20.5 10.1-2.2.4-4.6.1-7.2-1.1-4.1-1.9-6-1.4-6 1.4 0 3.9 8.8 9.1 15.5 9.1 7.2 0 18-7.6 22.1-15.5 3.9-7.4 2.4-8.8-3.9-4zm-11.2 13c-4 2.5-9.5 3.4-9.5 1.5 0-.6 1-1 2.3-1 1.2-.1 3.6-.7 5.2-1.5 5-2.2 6.3-1.6 2 1z"/></svg>